# xmcd
#
# Track frame offsets: 
#        150
#        42678
#        59661
#        75024
#        105102
#        131559
#        175117
#        197051
#        227794
#
# Disc length: 4316 seconds
#
# Revision: 0
# Processed by: cddbd v1.5.2PL0 Copyright (c) Steve Scherf et al.
# Submitted via: ExactAudioCopy v1.0b3
#
DISCID=6d10da09
DTITLE=Dexys - Nowhere is Home CD2
DYEAR=2014
DGENRE=Pop
TTITLE0=The Waltz 
TTITLE1=Geno 
TTITLE2=I Love You (Listen To This) 
TTITLE3=Until I Believe In My Soul
TTITLE4=Tell Me When My Light Turns Green
TTITLE5=Until I Believe In My Soul [Pt. 2] 
TTITLE6=Liars A To E 
TTITLE7=Old 
TTITLE8=This Is What She's Like
EXTD=
EXTT0=
EXTT1=
EXTT2=
EXTT3=
EXTT4=
EXTT5=
EXTT6=
EXTT7=
EXTT8=
PLAYORDER=
